# xmcd
#
# Track frame offsets:
#	150
#	9528
#	19856
#	32203
#	45375
#	56066
#	67988
#	78623
#	90119
#	104963
#	118413
#	129619
#	138600
#	150727
#	166799
#	179608
#	189813
#	200670
#
# Disc length: 2780 seconds
#
# Revision: 0
# Processed by: cddbd v1.4PL0 Copyright (c) Steve Scherf et al.
# Submitted via: dBpowerAMP V4.0
#
DISCID=fa0ada12
DTITLE=Tom Jones - The Great Tom Jones CD.03
DYEAR=2001
DGENRE=Blues
TTITLE0=For Once In My Life
TTITLE1=Such A Night
TTITLE2=I (Who Have Nothing)
TTITLE3=If Ever I Would Leave You
TTITLE4=Save The Last Dance For Me
TTITLE5=If I Ruled The World
TTITLE6=Release Me
TTITLE7=Send In The Clowns
TTITLE8=Unchained Melody
TTITLE9=Let It Be
TTITLE10=Long And Winding Road
TTITLE11=Something 'Bout You Baby I Like
TTITLE12=Endless Love
TTITLE13=My Way
TTITLE14=Do Ya Think I'm Sexy?
TTITLE15=Nine To Five
TTITLE16=Fever
TTITLE17=Celebration
EXTD=
EXTT0=
EXTT1=
EXTT2=
EXTT3=
EXTT4=
EXTT5=
EXTT6=
EXTT7=
EXTT8=
EXTT9=
EXTT10=
EXTT11=
EXTT12=
EXTT13=
EXTT14=
EXTT15=
EXTT16=
EXTT17=
PLAYORDER=
